<?xml version="1.0" encoding="UTF-8"?>
<!DOCTYPE svg PUBLIC "-//W3C//DTD SVG 1.1//EN" "http://www.w3.org/Graphics/SVG/1.1/DTD/svg11.dtd">
<!-- Creator: CorelDRAW -->
<svg xmlns="http://www.w3.org/2000/svg" xml:space="preserve" width="5.0468in" height="4.54327in" version="1.1" style="shape-rendering:geometricPrecision; text-rendering:geometricPrecision; image-rendering:optimizeQuality; fill-rule:evenodd; clip-rule:evenodd"
viewBox="0 0 1007.59 907.06"
 xmlns:xlink="http://www.w3.org/1999/xlink"
 xmlns:xodm="http://www.corel.com/coreldraw/odm/2003">
 <defs>
  <style type="text/css">
   <![CDATA[
    .fil0 {fill:#FEFEFE}
    .fil1 {fill:#FEFEFE;fill-rule:nonzero}
   ]]>
  </style>
 </defs>
 <g id="Layer_x0020_1">
  <metadata id="CorelCorpID_0Corel-Layer"/>
  <path class="fil0" d="M289.27 177.43l653.89 0c19.7,0 36.65,7.91 49.3,23 12.65,15.09 17.49,33.16 14.05,52.56l-58.22 328.88c-5.49,31 -31.87,53.13 -63.36,53.13l-532.04 0c-31.13,0 -57.26,-21.56 -63.17,-52.12l-63.63 -328.88c-3.78,-19.51 0.89,-37.84 13.54,-53.17 12.65,-15.33 29.75,-23.39 49.63,-23.39z"/>
  <path class="fil1" d="M384.03 748.18c21.93,0 41.8,8.89 56.17,23.27 14.38,14.38 23.27,34.24 23.27,56.17 0,21.93 -8.89,41.79 -23.27,56.17 -14.38,14.38 -34.24,23.27 -56.17,23.27 -21.93,0 -41.79,-8.89 -56.17,-23.27 -14.38,-14.38 -23.27,-34.24 -23.27,-56.17 0,-21.93 8.89,-41.8 23.27,-56.17 14.38,-14.38 34.24,-23.27 56.17,-23.27zm28.38 51.06c-7.26,-7.26 -17.3,-11.75 -28.38,-11.75 -11.09,0 -21.12,4.49 -28.38,11.75 -7.26,7.26 -11.75,17.3 -11.75,28.38 0,11.09 4.49,21.12 11.75,28.38 7.26,7.26 17.3,11.75 28.38,11.75 11.09,0 21.12,-4.49 28.38,-11.75 7.26,-7.26 11.75,-17.3 11.75,-28.38 0,-11.09 -4.49,-21.12 -11.75,-28.38z"/>
  <path class="fil1" d="M823.36 748.18c21.93,0 41.8,8.89 56.17,23.27 14.38,14.38 23.27,34.24 23.27,56.17 0,21.93 -8.89,41.79 -23.27,56.17 -14.38,14.38 -34.24,23.27 -56.17,23.27 -21.93,0 -41.79,-8.89 -56.17,-23.27 -14.38,-14.38 -23.27,-34.24 -23.27,-56.17 0,-21.93 8.89,-41.8 23.27,-56.17 14.38,-14.38 34.24,-23.27 56.17,-23.27zm28.38 51.06c-7.26,-7.26 -17.3,-11.75 -28.38,-11.75 -11.09,0 -21.12,4.49 -28.38,11.75 -7.26,7.26 -11.75,17.3 -11.75,28.38 0,11.09 4.49,21.12 11.75,28.38 7.26,7.26 17.3,11.75 28.38,11.75 11.09,0 21.12,-4.49 28.38,-11.75 7.26,-7.26 11.75,-17.3 11.75,-28.38 0,-11.09 -4.49,-21.12 -11.75,-28.38z"/>
  <path class="fil1" d="M906 721.38l-597.46 0c-27.32,0 -49.02,-4.72 -66.51,-17.46 -17.78,-12.95 -29.19,-32.7 -35.24,-62.32l-0.07 0.02 -124.82 -577.92c-1.36,-6.32 -5.19,-8.91 -11.46,-9.57l-70.44 -7.34 4.79 -46.79 97.57 10.16c10.61,1.1 18.31,9.87 20.47,19.89l129.94 601.61 0 0.37c3.53,17.45 8.99,28.18 16.89,33.94 8.26,6.02 21.18,8.25 38.88,8.25l621.72 0 -5.16 33.57c-1.25,8.1 -11.47,13.59 -19.09,13.59z"/>
 </g>
</svg>
