<?xml version="1.0" encoding="UTF-8"?>
<!DOCTYPE svg PUBLIC "-//W3C//DTD SVG 1.1//EN" "http://www.w3.org/Graphics/SVG/1.1/DTD/svg11.dtd">
<!-- Creator: CorelDRAW -->
<svg xmlns="http://www.w3.org/2000/svg" xml:space="preserve" width="3.92425in" height="2.85149in" version="1.1" style="shape-rendering:geometricPrecision; text-rendering:geometricPrecision; image-rendering:optimizeQuality; fill-rule:evenodd; clip-rule:evenodd"
viewBox="0 0 120.96 87.89"
 xmlns:xlink="http://www.w3.org/1999/xlink"
 xmlns:xodm="http://www.corel.com/coreldraw/odm/2003">
 <defs>
  <style type="text/css">
   <![CDATA[
    .fil0 {fill:#FEFEFE}
    .fil1 {fill:#FFF212}
    .fil2 {fill:#FFF212;fill-rule:nonzero}
   ]]>
  </style>
 </defs>
 <g id="Layer_x0020_1">
  <metadata id="CorelCorpID_0Corel-Layer"/>
  <g id="_2580927660224">
   <path class="fil0" d="M68.79 0c0,0 4.53,3 8.81,6.16 3.62,2.67 4.94,5.5 3.53,10.94 0,0 -14.89,0.2 -12.34,-17.1z"/>
   <path class="fil0" d="M98.32 8.33c0,0 -4.68,0.96 -9.2,2.13 -3.83,0.99 -5.83,2.86 -6.46,7.76 0,0 12.07,5.05 15.67,-9.89z"/>
   <polygon class="fil1" points="37.97,35.66 25.64,35.66 25.64,42.21 66.8,42.21 66.8,21.21 88.71,33.86 88.71,61.08 66.8,61.08 66.8,53.97 79.7,53.97 79.7,48.09 38.16,48.09 38.16,68.2 95.64,68.2 95.64,28.55 66.71,14.23 37.97,27.51 "/>
   <path class="fil2" d="M-0 87.68l4.14 -6.25 -3.75 -5.74 2.83 0 2.36 3.57 2.36 -3.57 2.83 0 -3.76 5.74 4.13 6.25 -2.91 0 -2.66 -4.06 -2.66 4.06 -2.91 0zm23.19 0l-2.62 0 -1.04 -2.73 -4.81 0 -1 2.73 -2.57 0 4.66 -11.99 2.57 0 4.8 11.99zm-4.44 -4.76l-1.67 -4.44 -1.62 4.44 3.29 0zm7.34 4.76l0 -5.05 -4.4 -6.95 2.84 0 2.84 4.75 2.76 -4.75 2.79 0 -4.4 6.96 0 5.03 -2.43 0zm12.68 -11.99l4.42 0c1,0 1.76,0.08 2.28,0.23 0.7,0.21 1.3,0.58 1.8,1.11 0.5,0.53 0.88,1.18 1.14,1.94 0.26,0.76 0.39,1.71 0.39,2.83 0,0.99 -0.12,1.84 -0.37,2.55 -0.3,0.87 -0.73,1.58 -1.28,2.12 -0.42,0.41 -0.99,0.73 -1.7,0.96 -0.53,0.17 -1.25,0.25 -2.14,0.25l-4.55 0 0 -11.99zm2.43 2.03l0 7.94 1.8 0c0.67,0 1.16,-0.04 1.46,-0.11 0.39,-0.1 0.72,-0.27 0.97,-0.5 0.26,-0.23 0.47,-0.62 0.63,-1.16 0.16,-0.54 0.25,-1.27 0.25,-2.2 0,-0.93 -0.08,-1.64 -0.25,-2.13 -0.16,-0.5 -0.39,-0.88 -0.68,-1.16 -0.29,-0.28 -0.66,-0.47 -1.12,-0.56 -0.33,-0.08 -1,-0.11 -1.98,-0.11l-1.08 0zm9.67 -2.03l2.43 0 0 6.5c0,1.03 0.03,1.7 0.09,2 0.1,0.49 0.35,0.89 0.73,1.18 0.39,0.3 0.92,0.45 1.59,0.45 0.68,0 1.19,-0.14 1.54,-0.42 0.35,-0.28 0.55,-0.63 0.62,-1.04 0.07,-0.41 0.11,-1.09 0.11,-2.04l0 -6.64 2.43 0 0 6.31c0,1.44 -0.06,2.46 -0.2,3.05 -0.13,0.59 -0.37,1.1 -0.72,1.51 -0.35,0.41 -0.82,0.73 -1.4,0.98 -0.59,0.24 -1.35,0.37 -2.3,0.37 -1.14,0 -2.01,-0.13 -2.6,-0.4 -0.59,-0.27 -1.06,-0.61 -1.4,-1.03 -0.34,-0.42 -0.57,-0.87 -0.68,-1.33 -0.16,-0.69 -0.24,-1.7 -0.24,-3.05l0 -6.4zm12.1 11.99l0 -11.99 2.35 0 4.94 8.04 0 -8.04 2.24 0 0 11.99 -2.43 0 -4.86 -7.88 0 7.88 -2.24 0zm17.67 -4.41l0 -2.03 5.21 0 0 4.79c-0.51,0.49 -1.24,0.93 -2.2,1.3 -0.96,0.37 -1.93,0.56 -2.92,0.56 -1.25,0 -2.35,-0.26 -3.28,-0.79 -0.93,-0.53 -1.63,-1.28 -2.1,-2.26 -0.47,-0.98 -0.7,-2.05 -0.7,-3.2 0,-1.25 0.26,-2.36 0.78,-3.34 0.52,-0.97 1.29,-1.72 2.3,-2.24 0.77,-0.4 1.73,-0.6 2.87,-0.6 1.49,0 2.65,0.31 3.49,0.94 0.83,0.63 1.37,1.49 1.61,2.6l-2.41 0.45c-0.17,-0.59 -0.49,-1.06 -0.95,-1.4 -0.46,-0.34 -1.04,-0.51 -1.74,-0.51 -1.06,0 -1.9,0.34 -2.52,1.01 -0.62,0.67 -0.94,1.67 -0.94,2.99 0,1.43 0.32,2.5 0.95,3.21 0.63,0.71 1.46,1.07 2.48,1.07 0.51,0 1.01,-0.1 1.52,-0.3 0.51,-0.2 0.95,-0.44 1.31,-0.73l0 -1.52 -2.76 0zm30.74 4.41l0 -11.99 2.43 0 0 4.72 4.72 0 0 -4.72 2.43 0 0 11.99 -2.43 0 0 -5.24 -4.72 0 0 5.24 -2.43 0zm-11.38 -2.13l0 2.13 -8.06 0c0.09,-0.81 0.35,-1.57 0.78,-2.3 0.44,-0.72 1.3,-1.68 2.58,-2.88 1.04,-0.97 1.67,-1.62 1.9,-1.97 0.32,-0.47 0.47,-0.94 0.47,-1.41 0,-0.51 -0.14,-0.91 -0.41,-1.18 -0.27,-0.28 -0.65,-0.41 -1.14,-0.41 -0.48,0 -0.86,0.15 -1.14,0.44 -0.28,0.29 -0.44,0.77 -0.49,1.44l-2.29 -0.23c0.14,-1.27 0.56,-2.18 1.28,-2.73 0.72,-0.55 1.62,-0.83 2.7,-0.83 1.18,0 2.11,0.32 2.79,0.96 0.68,0.64 1.01,1.44 1.01,2.39 0,0.54 -0.1,1.06 -0.29,1.55 -0.19,0.49 -0.5,1 -0.92,1.54 -0.28,0.36 -0.78,0.87 -1.51,1.54 -0.73,0.67 -1.19,1.11 -1.38,1.33 -0.2,0.22 -0.35,0.43 -0.47,0.64l4.57 0zm6.05 2.13l0 -2.41 -4.89 0 0 -2 5.19 -7.63 1.93 0 0 7.62 1.49 0 0 2.01 -1.49 0 0 2.41 -2.23 0zm0 -4.42l0 -4.1 -2.74 4.1 2.74 0z"/>
  </g>
 </g>
</svg>
